<svg width="141.732" height="141.732" xmlns="http://www.w3.org/2000/svg">

 <g>
  <title>background</title>
  <rect fill="none" id="canvas_background" height="402" width="582" y="-1" x="-1"/>
 </g>
 <g>
  <title>Layer 1</title>
  <path fill="#ffffff" id="svg_1" d="m79.427,13.552c0,0.022 -0.003,0.043 -0.004,0.064l0.004,0l0,2.643l0,70.022l0,1.117c9.879,3.381 16.985,12.738 16.985,23.762c0,13.872 -11.246,25.118 -25.117,25.118c-13.877,0 -25.123,-11.246 -25.123,-25.118c0,-11.123 7.24,-20.552 17.259,-23.854l0,-4.798c-0.002,0 -0.01,0.004 -0.012,0.004l0,-58.194c0.002,0.002 0.01,0.004 0.012,0.006l0,-10.643c-0.002,-0.044 -0.012,-0.085 -0.012,-0.129c0,-4.418 3.583,-8 8.007,-8c4.418,0.001 8.001,3.582 8.001,8m5.42,56.928l0,-10.845l10.657,0c1.501,0 2.711,-1.209 2.711,-2.71c0,-1.497 -1.209,-2.711 -2.711,-2.711l-10.657,0l0,-10.843l10.657,0c1.501,0 2.711,-1.212 2.711,-2.709c0,-1.5 -1.209,-2.715 -2.711,-2.715l-10.657,0l0,-24.329l-0.004,0c0.001,-0.044 0.004,-0.085 0.004,-0.131c0,-7.449 -6.009,-13.487 -13.42,-13.487c-7.418,0 -13.424,6.038 -13.424,13.487c0,0.045 0.003,0.087 0.004,0.131l-0.004,0l0,70.965c-9.794,4.889 -16.527,14.998 -16.527,26.688c0,16.467 13.351,29.819 29.823,29.819c16.466,0 29.817,-13.349 29.817,-29.819c0,-11.585 -6.611,-21.622 -16.265,-26.553l0,-8.817l10.657,0c1.501,0 2.713,-1.214 2.713,-2.709c0,-1.499 -1.211,-2.712 -2.713,-2.712l-10.661,0z"/>
 </g>
</svg>