<svg width="24" height="24" xmlns="http://www.w3.org/2000/svg">

 <g>
  <title>background</title>
  <rect fill="none" id="canvas_background" height="402" width="582" y="-1" x="-1"/>
 </g>
 <g>
  <title>Layer 1</title>
  <path fill="#ffffff" id="svg_2" d="m1,9l16,0c2.2,0 4,-1.8 4,-4s-1.8,-4 -4,-4s-4,1.8 -4,4c0,0.6 0.4,1 1,1s1,-0.4 1,-1c0,-1.1 0.9,-2 2,-2s2,0.9 2,2s-0.9,2 -2,2l-16,0c-0.6,0 -1,0.4 -1,1l0,0c0,0.6 0.4,1 1,1z"/>
  <path fill="#ffffff" id="svg_3" d="m11,13l-10,0c-0.5,0 -1,0.4 -1,1l0,0c0,0.5 0.4,1 1,1l10,0c1.1,0 2,0.9 2,2s-0.9,2 -2,2s-2,-0.9 -2,-2c0,-0.6 -0.4,-1 -1,-1s-1,0.4 -1,1c0,2.2 1.8,4 4,4s4,-1.8 4,-4s-1.8,-4 -4,-4z"/>
  <path fill="#ffffff" id="svg_4" d="m20,10l-19,0c-0.5,0 -1,0.4 -1,1l0,0c0,0.5 0.4,1 1,1l19,0c1.1,0 2,0.9 2,2s-0.9,2 -2,2s-2,-0.9 -2,-2c0,-0.6 -0.4,-1 -1,-1s-1,0.4 -1,1c0,2.2 1.8,4 4,4s4,-1.8 4,-4s-1.8,-4 -4,-4z"/>
 </g>
</svg>